<?xml version="1.0" standalone="no"?><svg xmlns="http://www.w3.org/2000/svg" viewBox="0 0 1440 320"><path fill="#000b76" fill-opacity="1" d="M0,192L24,181.3C48,171,96,149,144,149.3C192,149,240,171,288,149.3C336,128,384,64,432,48C480,32,528,64,576,106.7C624,149,672,203,720,213.3C768,224,816,192,864,181.3C912,171,960,181,1008,181.3C1056,181,1104,171,1152,165.3C1200,160,1248,160,1296,144C1344,128,1392,96,1416,80L1440,64L1440,320L1416,320C1392,320,1344,320,1296,320C1248,320,1200,320,1152,320C1104,320,1056,320,1008,320C960,320,912,320,864,320C816,320,768,320,720,320C672,320,624,320,576,320C528,320,480,320,432,320C384,320,336,320,288,320C240,320,192,320,144,320C96,320,48,320,24,320L0,320Z"></path></svg>